<?xml version="1.0" encoding="utf-8"?>
<!-- Generator: Adobe Illustrator 25.3.0, SVG Export Plug-In . SVG Version: 6.00 Build 0)  -->
<svg version="1.1" id="skyline_x25_20logo_x25_20standalone.fw-Page_x25_201"
	 xmlns="http://www.w3.org/2000/svg" xmlns:xlink="http://www.w3.org/1999/xlink" x="0px" y="0px" viewBox="0 0 1920 1080"
	 style="enable-background:new 0 0 1920 1080;" xml:space="preserve">
<style type="text/css">
	.st0{fill:#121212;}
	.st1{fill:url(#SVGID_1_);}
	.st2{opacity:0.6;mix-blend-mode:color-burn;}
	.st3{fill:url(#SVGID_2_);}
	.st4{fill:url(#SVGID_3_);}
	.st5{fill:url(#SVGID_4_);}
	.st6{fill:url(#SVGID_5_);}
	.st7{fill:url(#SVGID_6_);filter:url(#Adobe_OpacityMaskFilter);}
	.st8{mask:url(#mask1_2_);}
	.st9{fill:url(#SVGID_7_);}
	.st10{fill:url(#SVGID_8_);}
	.st11{fill:url(#SVGID_9_);}
	.st12{fill:url(#SVGID_10_);}
	.st13{fill:url(#SVGID_11_);}
	.st14{fill:url(#SVGID_12_);}
	.st15{opacity:0.65;mix-blend-mode:overlay;}
	.st16{fill:url(#SVGID_13_);}
	.st17{fill:url(#SVGID_14_);}
	.st18{fill:url(#SVGID_15_);}
	.st19{fill:url(#SVGID_16_);}
	.st20{fill:#FFFFFF;}
</style>
<rect class="st0" width="1920" height="1080"/>
<g>
	<g>
		
			<linearGradient id="SVGID_1_" gradientUnits="userSpaceOnUse" x1="703.5411" y1="795.8755" x2="703.6685" y2="796.2335" gradientTransform="matrix(1378.5713 0 0 -1347.8571 -969503.0625 1073507.5)">
			<stop  offset="0" style="stop-color:#E8E5DD"/>
			<stop  offset="1" style="stop-color:#F6F6F6"/>
		</linearGradient>
		<path class="st1" d="M367,703.7c0,42.6,27,79,64.9,92.8c37.9-13.8,92-50.1,92-92.8s-54.1-79-92-92.8
			C394.1,624.7,367,661,367,703.7z M498.9,469.4c38.2-13.6,65.6-50.1,65.6-93c0-40.3-24.2-75-58.8-90.3
			c-38.2,13.6-92.7,50.1-92.7,93C413,419.4,464.2,454.1,498.9,469.4z M204.7,541.4c0,54.5,44.2,98.7,98.7,98.7
			c37.5,0,70.1-20.9,86.8-51.7c-43.6-47.7-65.9-80.9-101.3-144.7C241.3,450.7,204.7,491.7,204.7,541.4z M645.1,638.6
			c46.4-8.1,81.7-48.6,81.7-97.3c0-54.5-44.2-98.7-98.7-98.7c-36.9,0-69.1,20.3-86.1,50.3C582.1,538,615.9,578.5,645.1,638.6z"/>
		<g class="st2">
			<g>
				
					<radialGradient id="SVGID_2_" cx="396.6586" cy="377.5359" r="380.9763" gradientTransform="matrix(1 0 0 -1 0 1080)" gradientUnits="userSpaceOnUse">
					<stop  offset="0" style="stop-color:#FF1D4C"/>
					<stop  offset="0.6667" style="stop-color:#FF1D4C"/>
					<stop  offset="1" style="stop-color:#E8E5DD"/>
				</radialGradient>
				<path class="st3" d="M645.1,638.6c46.4-8.1,81.7-48.6,81.7-97.3c0-54.5-44.2-98.7-98.7-98.7c-36.9,0-69.1,20.3-86.1,50.3
					C582.1,538,615.9,578.5,645.1,638.6z"/>
				
					<radialGradient id="SVGID_3_" cx="539.8087" cy="702.0853" r="380.9763" gradientTransform="matrix(1 0 0 -1 0 1080)" gradientUnits="userSpaceOnUse">
					<stop  offset="0" style="stop-color:#FF1D4C"/>
					<stop  offset="0.6667" style="stop-color:#FF1D4C"/>
					<stop  offset="1" style="stop-color:#E8E5DD"/>
				</radialGradient>
				<path class="st4" d="M204.7,541.4c0,54.5,44.2,98.7,98.7,98.7c37.5,0,70.1-20.9,86.8-51.7c-43.6-47.7-65.9-80.9-101.3-144.7
					C241.3,450.7,204.7,491.7,204.7,541.4z"/>
				
					<radialGradient id="SVGID_4_" cx="539.8087" cy="702.0853" r="99.9779" gradientTransform="matrix(1 0 0 -1 0 1080)" gradientUnits="userSpaceOnUse">
					<stop  offset="0" style="stop-color:#FFFFFF"/>
					<stop  offset="1" style="stop-color:#FF1D4C"/>
				</radialGradient>
				<path class="st5" d="M498.9,469.4c38.2-13.6,65.6-50.1,65.6-93c0-40.3-24.2-75-58.8-90.3c-38.2,13.6-92.7,50.1-92.7,93
					C413,419.4,464.2,454.1,498.9,469.4z"/>
				
					<radialGradient id="SVGID_5_" cx="396.6586" cy="377.5359" r="99.9779" gradientTransform="matrix(1 0 0 -1 0 1080)" gradientUnits="userSpaceOnUse">
					<stop  offset="0" style="stop-color:#FFFFFF"/>
					<stop  offset="1" style="stop-color:#FF1D4C"/>
				</radialGradient>
				<path class="st6" d="M367,703.7c0,42.6,27,79,64.9,92.8c37.9-13.8,92-50.1,92-92.8c0-42.7-54.1-79-92-92.8
					C394.1,624.7,367,661,367,703.7z"/>
			</g>
			<defs>
				<filter id="Adobe_OpacityMaskFilter" filterUnits="userSpaceOnUse" x="204.7" y="286" width="522.1" height="510.4">
					<feColorMatrix  type="matrix" values="1 0 0 0 0  0 1 0 0 0  0 0 1 0 0  0 0 0 1 0"/>
				</filter>
			</defs>
			<mask maskUnits="userSpaceOnUse" x="204.7" y="286" width="522.1" height="510.4" id="mask1_2_">
				
					<linearGradient id="SVGID_6_" gradientUnits="userSpaceOnUse" x1="703.7217" y1="796.1179" x2="703.6672" y2="795.922" gradientTransform="matrix(1496 0 0 -1462 -1052276 1164320)">
					<stop  offset="0" style="stop-color:#FFFFFF"/>
					<stop  offset="1" style="stop-color:#000000"/>
				</linearGradient>
				<rect x="165.6" y="268.8" class="st7" width="566.5" height="553.7"/>
			</mask>
			<g class="st8">
				
					<radialGradient id="SVGID_7_" cx="396.6586" cy="377.5359" r="380.9763" gradientTransform="matrix(1 0 0 -1 0 1080)" gradientUnits="userSpaceOnUse">
					<stop  offset="0" style="stop-color:#FFDE22"/>
					<stop  offset="0.6667" style="stop-color:#FFDE22"/>
					<stop  offset="1" style="stop-color:#E8E5DD"/>
				</radialGradient>
				<path class="st9" d="M645.1,638.6c46.4-8.1,81.7-48.6,81.7-97.3c0-54.5-44.2-98.7-98.7-98.7c-36.9,0-69.1,20.3-86.1,50.3
					C582.1,538,615.9,578.5,645.1,638.6z"/>
				
					<radialGradient id="SVGID_8_" cx="539.8087" cy="702.0853" r="380.9763" gradientTransform="matrix(1 0 0 -1 0 1080)" gradientUnits="userSpaceOnUse">
					<stop  offset="0" style="stop-color:#FFDE22"/>
					<stop  offset="0.6667" style="stop-color:#FFDE22"/>
					<stop  offset="1" style="stop-color:#E8E5DD"/>
				</radialGradient>
				<path class="st10" d="M204.7,541.4c0,54.5,44.2,98.7,98.7,98.7c37.5,0,70.1-20.9,86.8-51.7c-43.6-47.7-65.9-80.9-101.3-144.7
					C241.3,450.7,204.7,491.7,204.7,541.4z"/>
				
					<radialGradient id="SVGID_9_" cx="539.8087" cy="702.0853" r="99.9779" gradientTransform="matrix(1 0 0 -1 0 1080)" gradientUnits="userSpaceOnUse">
					<stop  offset="0" style="stop-color:#FFFFFF"/>
					<stop  offset="1" style="stop-color:#FFDE22"/>
				</radialGradient>
				<path class="st11" d="M498.9,469.4c38.2-13.6,65.6-50.1,65.6-93c0-40.3-24.2-75-58.8-90.3c-38.2,13.6-92.7,50.1-92.7,93
					C413,419.4,464.2,454.1,498.9,469.4z"/>
				
					<radialGradient id="SVGID_10_" cx="396.6586" cy="377.5359" r="99.9779" gradientTransform="matrix(1 0 0 -1 0 1080)" gradientUnits="userSpaceOnUse">
					<stop  offset="0" style="stop-color:#FFFFFF"/>
					<stop  offset="1" style="stop-color:#FFDE22"/>
				</radialGradient>
				<path class="st12" d="M367,703.7c0,42.6,27,79,64.9,92.8c37.9-13.8,92-50.1,92-92.8c0-42.7-54.1-79-92-92.8
					C394.1,624.7,367,661,367,703.7z"/>
			</g>
		</g>
		
			<linearGradient id="SVGID_11_" gradientUnits="userSpaceOnUse" x1="702.705" y1="796.3268" x2="702.705" y2="795.9149" gradientTransform="matrix(636.4644 0 0 -1372.5001 -446837.25 1093114.5)">
			<stop  offset="0" style="stop-color:#FFDE22"/>
			<stop  offset="1" style="stop-color:#F01E52"/>
		</linearGradient>
		<path class="st13" d="M431.9,796.5c10.5,3.8,21.9,5.9,33.8,5.9c23.5,0,45.1-8.2,62-21.9l2.3-151.8c-17.3-14.8-39.7-23.8-64.3-23.8
			c-11.9,0-23.3,2.1-33.8,5.9c37.9,13.8,64.9,50.1,64.9,92.8S469.8,782.6,431.9,796.5z M390.3,588.4c7.6-14,11.9-30,11.9-47
			c0-54.5-44.2-98.7-98.7-98.7c-4.9,0-9.7,0.4-14.4,1.1C304.7,503.1,341.2,554.1,390.3,588.4z M367,376.3
			c0,43.7,28.3,80.7,67.6,93.7V282.6C395.3,295.6,367,332.7,367,376.3z"/>
		
			<linearGradient id="SVGID_12_" gradientUnits="userSpaceOnUse" x1="702.3727" y1="796.2313" x2="702.3727" y2="795.8401" gradientTransform="matrix(627.1428 0 0 -1355.5713 -439961.6562 1079625.875)">
			<stop  offset="0" style="stop-color:#FFDE22"/>
			<stop  offset="1" style="stop-color:#F01E52"/>
		</linearGradient>
		<path class="st14" d="M511.9,791c31.3-16.6,52.6-49.5,52.6-87.3c0-38.4-21.9-71.6-53.8-87.9c10.3,27.8,15.9,57.9,15.9,89.3
			C526.6,735.2,521.4,764.1,511.9,791z M529.3,541.4c0,54.5,44.2,98.7,98.7,98.7c5.8,0,11.5-0.5,17-1.5
			c-16-60-53.2-111.4-103.1-145.7C533.9,507.3,529.3,523.8,529.3,541.4z M422.9,465.3c13,6.2,27.5,9.8,42.8,9.8
			c11.6,0,22.8-2,33.1-5.7c-34.6-15.3-58.8-50-58.8-90.3c0-42.9,27.4-79.4,65.6-93c-12.2-5.4-25.7-8.4-39.9-8.4
			c-14.9,0-29,3.3-41.6,9.2c-10.7,28.3-16.5,58.9-16.5,90.9C407.6,408.5,413,438,422.9,465.3z"/>
		<g class="st15">
			
				<radialGradient id="SVGID_13_" cx="539.8087" cy="702.0853" r="175.7187" gradientTransform="matrix(1 0 0 -1 0 1080)" gradientUnits="userSpaceOnUse">
				<stop  offset="0" style="stop-color:#8F8F8F"/>
				<stop  offset="0.5944" style="stop-color:#8F8F8F"/>
				<stop  offset="0.7" style="stop-color:#C5C5C5"/>
				<stop  offset="0.7556" style="stop-color:#D9D9D9"/>
				<stop  offset="1" style="stop-color:#FFFFFF"/>
			</radialGradient>
			<path class="st16" d="M367,376.3c0,54.5,44.2,98.7,98.7,98.7c11.6,0,22.8-2,33.1-5.7c-34.6-15.3-58.8-50-58.8-90.3
				c0-42.9,27.4-79.4,65.6-93c-12.2-5.4-25.7-8.4-39.9-8.4C411.2,277.6,367,321.8,367,376.3z"/>
			
				<radialGradient id="SVGID_14_" cx="539.8087" cy="702.0853" r="259.791" gradientTransform="matrix(1 0 0 -1 0 1080)" gradientUnits="userSpaceOnUse">
				<stop  offset="0" style="stop-color:#FFFFFF"/>
				<stop  offset="0.2778" style="stop-color:#FFFFFF"/>
				<stop  offset="0.7722" style="stop-color:#FFFFFF"/>
				<stop  offset="0.8778" style="stop-color:#D8D8D8"/>
				<stop  offset="0.9333" style="stop-color:#C1C1C1"/>
				<stop  offset="1" style="stop-color:#8F8F8F"/>
			</radialGradient>
			<path class="st17" d="M390.3,588.4c7.6-14,11.9-30,11.9-47c0-54.5-44.2-98.7-98.7-98.7c-4.9,0-9.7,0.4-14.4,1.1
				C304.7,503.1,341.2,554.1,390.3,588.4z"/>
			
				<radialGradient id="SVGID_15_" cx="396.6586" cy="377.5359" r="259.791" gradientTransform="matrix(1 0 0 -1 0 1080)" gradientUnits="userSpaceOnUse">
				<stop  offset="0" style="stop-color:#FFFFFF"/>
				<stop  offset="0.2778" style="stop-color:#FFFFFF"/>
				<stop  offset="0.7722" style="stop-color:#FFFFFF"/>
				<stop  offset="0.8778" style="stop-color:#D8D8D8"/>
				<stop  offset="0.9333" style="stop-color:#C1C1C1"/>
				<stop  offset="1" style="stop-color:#8F8F8F"/>
			</radialGradient>
			<path class="st18" d="M529.3,541.4c0,54.5,44.2,98.7,98.7,98.7c5.8,0,11.5-0.5,17-1.5c-16-60-53.2-111.4-103.1-145.7
				C533.9,507.3,529.3,523.8,529.3,541.4z"/>
			
				<radialGradient id="SVGID_16_" cx="396.6586" cy="377.5359" r="175.7187" gradientTransform="matrix(1 0 0 -1 0 1080)" gradientUnits="userSpaceOnUse">
				<stop  offset="0" style="stop-color:#8F8F8F"/>
				<stop  offset="0.5944" style="stop-color:#8F8F8F"/>
				<stop  offset="0.7" style="stop-color:#C5C5C5"/>
				<stop  offset="0.7556" style="stop-color:#D9D9D9"/>
				<stop  offset="1" style="stop-color:#FFFFFF"/>
			</radialGradient>
			<path class="st19" d="M431.9,796.5c10.5,3.8,21.9,5.9,33.8,5.9c54.5,0,98.7-44.2,98.7-98.7s-44.2-98.7-98.7-98.7
				c-11.9,0-23.3,2.1-33.8,5.9c37.9,13.8,64.9,50.1,64.9,92.8C496.9,746.3,469.8,782.6,431.9,796.5z"/>
		</g>
	</g>
	<g>
		<g>
			<path class="st20" d="M929.8,642c-17.7,0-32.6-2.8-44.5-8.4c-11.9-5.6-21-12.9-27.2-21.9c-6.2-9-9.5-18.5-9.9-28.5
				c0-1.8,0.6-3.3,1.7-4.6c1.1-1.2,2.6-1.8,4.3-1.8h25.5c2.5,0,4.3,0.6,5.6,1.7c1.2,1.1,2.3,2.5,3.3,4.1c1.1,3.9,3.3,7.7,6.6,11.4
				c3.2,3.8,7.7,6.9,13.3,9.3c5.6,2.4,12.7,3.7,21.3,3.7c13.7,0,24-2.4,30.8-7.3c6.8-4.9,10.2-11.5,10.2-19.8
				c0-5.9-1.8-10.6-5.4-14.2c-3.6-3.5-9.2-6.8-16.7-9.7c-7.5-2.9-17.5-6-29.9-9.3c-14.3-3.7-26.3-8.1-35.9-13.2
				c-9.6-5.2-16.9-11.7-21.7-19.6c-4.9-7.9-7.3-18-7.3-30.1c0-11.8,3-22.2,9-31.4c6-9.1,14.6-16.3,25.7-21.6
				c11.2-5.3,24.5-7.9,39.9-7.9c12.4,0,23.4,1.8,32.9,5.3c9.5,3.6,17.4,8.2,23.7,14s11.1,12,14.4,18.6c3.3,6.6,5.1,13,5.3,19.3
				c0,1.6-0.5,3.1-1.6,4.4c-1,1.3-2.5,2-4.4,2h-26.6c-1.5,0-3.1-0.4-4.6-1.2c-1.5-0.8-2.8-2.3-3.7-4.6c-1.1-6.3-4.9-11.7-11.2-16.1
				c-6.3-4.5-14.4-6.7-24.3-6.7c-10.3,0-18.6,2-24.9,6.1c-6.3,4.1-9.4,10.4-9.4,18.9c0,5.7,1.6,10.4,4.7,14.2
				c3.1,3.8,8.2,7.1,15.2,9.9c7,2.8,16.2,5.9,27.6,9.1c16.2,3.9,29.5,8.3,39.8,13.4c10.3,5.1,17.8,11.5,22.6,19.3
				c4.8,7.8,7.2,17.7,7.2,29.7c0,13.4-3.4,24.8-10.2,34.3c-6.8,9.4-16.3,16.7-28.5,21.8C960.2,639.5,946,642,929.8,642z"/>
			<path class="st20" d="M1107.7,639c-11.4,0-21.1-2.1-28.9-6.4c-7.8-4.3-13.6-10.6-17.4-19c-3.8-8.4-5.7-18.9-5.7-31.5v-69.1h-22.6
				c-1.9,0-3.5-0.7-4.9-2.1c-1.3-1.4-2-3.1-2-5.2v-17.7c0-2,0.7-3.8,2-5.2c1.3-1.4,3-2.1,4.9-2.1h22.6v-50.5c0-2,0.6-3.8,1.9-5.2
				c1.2-1.4,2.9-2.1,5-2.1h23.2c1.9,0,3.5,0.7,4.9,2.1c1.3,1.4,2,3.1,2,5.2v50.5h35.8c1.9,0,3.5,0.7,4.9,2.1c1.3,1.4,2,3.1,2,5.2
				v17.7c0,2-0.7,3.8-2,5.2c-1.3,1.4-3,2.1-4.9,2.1h-35.8V579c0,8.3,1.4,14.8,4.1,19.5c2.8,4.7,7.6,7,14.4,7h19.7
				c1.9,0,3.5,0.7,4.9,2.1c1.3,1.4,2,3.2,2,5.2v18.9c0,2-0.7,3.8-2,5.2c-1.3,1.4-3,2.1-4.9,2.1H1107.7z"/>
			<path class="st20" d="M1170.1,639c-1.9,0-3.5-0.7-4.9-2.1c-1.3-1.4-2-3.1-2-5.2V488.2c0-2.2,0.7-4.1,2-5.5c1.3-1.4,3-2.1,4.9-2.1
				h23.2c1.9,0,3.6,0.7,5,2.1c1.4,1.4,2.1,3.2,2.1,5.5v12.5c4.4-6.5,10.1-11.5,17-14.9c7-3.4,15-5.2,24.2-5.2h11.7
				c2.1,0,3.8,0.7,5,2.1c1.2,1.4,1.9,3.1,1.9,5.2v21.9c0,2-0.6,3.8-1.9,5.2c-1.2,1.4-2.9,2.1-5,2.1H1231c-9.2,0-16.3,2.7-21.3,8.2
				c-5.1,5.5-7.6,13-7.6,22.5v83.7c0,2-0.7,3.8-2,5.2c-1.3,1.4-3.1,2.1-5.1,2.1H1170.1z"/>
			<path class="st20" d="M1325.7,642c-9.9,0-18.9-2.1-26.9-6.2c-8-4.2-14.4-9.7-19-16.7c-4.7-7-7-14.9-7-23.6
				c0-14.2,5.4-25.5,16.2-34c10.8-8.4,25-14.1,42.8-16.9l39.2-6.1v-6.4c0-8.5-2-15.1-6-19.8c-4-4.7-10.9-7-20.6-7
				c-6.9,0-12.4,1.5-16.7,4.4c-4.3,2.9-7.5,6.9-9.6,11.7c-1.5,2.6-3.7,4-6.6,4h-22.6c-2.1,0-3.7-0.6-4.7-1.8
				c-1.1-1.2-1.6-2.8-1.6-4.9c0.2-3.2,1.4-7.2,3.7-11.9c2.3-4.7,5.9-9.2,10.9-13.6c5-4.4,11.3-8.1,19.2-11.1
				c7.8-3,17.3-4.6,28.3-4.6c12,0,22.2,1.6,30.5,4.7c8.3,3.1,14.9,7.4,19.9,12.6c5,5.3,8.6,11.5,10.9,18.6
				c2.3,7.1,3.4,14.6,3.4,22.5v95.6c0,2-0.7,3.8-2,5.2c-1.3,1.4-3,2.1-4.9,2.1h-23.2c-2.1,0-3.8-0.7-5-2.1c-1.2-1.4-1.9-3.1-1.9-5.2
				v-11.9c-2.5,3.9-5.8,7.5-10,10.8c-4.2,3.3-9.3,6.1-15.3,8.2S1333.9,642,1325.7,642z M1335.4,613.1c6.7,0,12.7-1.5,18.2-4.6
				c5.4-3,9.7-7.8,12.9-14.2s4.7-14.5,4.7-24.2v-6.4l-28.6,4.9c-11.3,1.8-19.6,4.8-25.2,8.8c-5.5,4.1-8.3,9-8.3,14.9
				c0,4.5,1.3,8.3,3.9,11.4c2.6,3.1,5.9,5.5,9.9,7C1326.8,612.3,1331,613.1,1335.4,613.1z"/>
			<path class="st20" d="M1513.1,639c-11.4,0-21.1-2.1-28.9-6.4c-7.8-4.3-13.6-10.6-17.4-19c-3.8-8.4-5.7-18.9-5.7-31.5v-69.1h-22.6
				c-1.9,0-3.5-0.7-4.9-2.1c-1.3-1.4-2-3.1-2-5.2v-17.7c0-2,0.7-3.8,2-5.2c1.3-1.4,3-2.1,4.9-2.1h22.6v-50.5c0-2,0.6-3.8,1.9-5.2
				c1.2-1.4,2.9-2.1,5-2.1h23.2c1.9,0,3.5,0.7,4.9,2.1c1.3,1.4,2,3.1,2,5.2v50.5h35.8c1.9,0,3.5,0.7,4.9,2.1c1.3,1.4,2,3.1,2,5.2
				v17.7c0,2-0.7,3.8-2,5.2c-1.3,1.4-3,2.1-4.9,2.1h-35.8V579c0,8.3,1.4,14.8,4.1,19.5c2.8,4.7,7.6,7,14.4,7h19.7
				c1.9,0,3.5,0.7,4.9,2.1c1.3,1.4,2,3.2,2,5.2v18.9c0,2-0.7,3.8-2,5.2c-1.3,1.4-3,2.1-4.9,2.1H1513.1z"/>
			<path class="st20" d="M1634.3,642c-15.3,0-28.1-2.8-38.5-8.5c-10.4-5.7-18.3-13.7-23.7-24.1s-8.5-22.4-9.3-36.2
				c-0.2-3.7-0.3-8.1-0.3-13.4c0-5.3,0.1-9.7,0.3-13.4c0.8-14,4-26.1,9.6-36.4c5.6-10.2,13.6-18.2,24-23.9c10.4-5.7,23-8.5,37.9-8.5
				c14.9,0,27.5,2.8,37.9,8.5c10.4,5.7,18.4,13.7,24,23.9c5.6,10.3,8.8,22.4,9.6,36.4c0.2,3.7,0.3,8.1,0.3,13.4
				c0,5.3-0.1,9.7-0.3,13.4c-0.8,13.8-3.9,25.9-9.3,36.2c-5.4,10.4-13.3,18.4-23.7,24.1C1662.4,639.2,1649.6,642,1634.3,642z
				 M1634.3,611.9c10.1,0,17.9-3.4,23.5-10.2c5.5-6.8,8.6-16.8,9.2-30c0.2-3,0.3-7,0.3-11.9s-0.1-8.8-0.3-11.9
				c-0.6-13-3.6-22.9-9.2-29.8c-5.5-6.9-13.4-10.4-23.5-10.4c-10.1,0-17.9,3.5-23.5,10.4c-5.5,6.9-8.6,16.9-9.2,29.8
				c-0.2,3-0.3,7-0.3,11.9s0.1,8.8,0.3,11.9c0.6,13.2,3.6,23.2,9.2,30C1616.4,608.5,1624.2,611.9,1634.3,611.9z"/>
		</g>
	</g>
</g>
</svg>
