<?xml version="1.0" encoding="utf-8"?>
<!-- Generator: Adobe Illustrator 25.3.0, SVG Export Plug-In . SVG Version: 6.00 Build 0)  -->
<svg version="1.1" id="skyline_x25_20logo_x25_20standalone.fw-Page_x25_201"
	 xmlns="http://www.w3.org/2000/svg" xmlns:xlink="http://www.w3.org/1999/xlink" x="0px" y="0px" viewBox="0 0 3840 960"
	 style="enable-background:new 0 0 3840 960;" xml:space="preserve">
<style type="text/css">
	.st0{fill:#121212;}
	.st1{fill:url(#SVGID_1_);}
	.st2{opacity:0.6;mix-blend-mode:color-burn;}
	.st3{fill:url(#SVGID_2_);}
	.st4{fill:url(#SVGID_3_);}
	.st5{fill:url(#SVGID_4_);}
	.st6{fill:url(#SVGID_5_);}
	.st7{fill:url(#SVGID_6_);filter:url(#Adobe_OpacityMaskFilter);}
	.st8{mask:url(#mask1_2_);}
	.st9{fill:url(#SVGID_7_);}
	.st10{fill:url(#SVGID_8_);}
	.st11{fill:url(#SVGID_9_);}
	.st12{fill:url(#SVGID_10_);}
	.st13{fill:url(#SVGID_11_);}
	.st14{fill:url(#SVGID_12_);}
	.st15{opacity:0.65;mix-blend-mode:overlay;}
	.st16{fill:url(#SVGID_13_);}
	.st17{fill:url(#SVGID_14_);}
	.st18{fill:url(#SVGID_15_);}
	.st19{fill:url(#SVGID_16_);}
	.st20{fill:#FFFFFF;}
</style>
<rect class="st0" width="3840" height="960"/>
<g>
	<g>
		
			<linearGradient id="SVGID_1_" gradientUnits="userSpaceOnUse" x1="1663.5503" y1="735.8796" x2="1663.6749" y2="736.2297" gradientTransform="matrix(1378.5713 0 0 -1347.8571 -2291971.5 992576.125)">
			<stop  offset="0" style="stop-color:#E8E5DD"/>
			<stop  offset="1" style="stop-color:#F6F6F6"/>
		</linearGradient>
		<path class="st1" d="M1340,639.9c0,41.7,26.5,77.3,63.5,90.8c37-13.5,90-49,90-90.8c0-41.7-52.9-77.3-90-90.8
			C1366.4,562.7,1340,598.2,1340,639.9z M1469,410.8c37.4-13.3,64.2-49,64.2-91c0-39.4-23.6-73.4-57.5-88.4
			c-37.4,13.3-90.6,49-90.6,91C1385,361.9,1435.1,395.8,1469,410.8z M1181.2,481.2c0,53.3,43.2,96.6,96.6,96.6
			c36.7,0,68.6-20.4,84.9-50.6c-42.6-46.7-64.4-79.1-99.1-141.6C1217,392.5,1181.2,432.6,1181.2,481.2z M1612,576.3
			c45.4-7.9,79.9-47.5,79.9-95.1c0-53.3-43.2-96.6-96.6-96.6c-36.1,0-67.6,19.9-84.2,49.2C1550.3,477.9,1583.4,517.6,1612,576.3z"/>
		<g class="st2">
			<g>
				
					<radialGradient id="SVGID_2_" cx="1368.9769" cy="321.2388" r="372.6458" gradientTransform="matrix(1 0 0 -1 0 960)" gradientUnits="userSpaceOnUse">
					<stop  offset="0" style="stop-color:#FF1D4C"/>
					<stop  offset="0.6667" style="stop-color:#FF1D4C"/>
					<stop  offset="1" style="stop-color:#E8E5DD"/>
				</radialGradient>
				<path class="st3" d="M1612,576.3c45.4-7.9,79.9-47.5,79.9-95.1c0-53.3-43.2-96.6-96.6-96.6c-36.1,0-67.6,19.9-84.2,49.2
					C1550.3,477.9,1583.4,517.6,1612,576.3z"/>
				
					<radialGradient id="SVGID_3_" cx="1508.9969" cy="638.6915" r="372.6458" gradientTransform="matrix(1 0 0 -1 0 960)" gradientUnits="userSpaceOnUse">
					<stop  offset="0" style="stop-color:#FF1D4C"/>
					<stop  offset="0.6667" style="stop-color:#FF1D4C"/>
					<stop  offset="1" style="stop-color:#E8E5DD"/>
				</radialGradient>
				<path class="st4" d="M1181.2,481.2c0,53.3,43.2,96.6,96.6,96.6c36.7,0,68.6-20.4,84.9-50.6c-42.6-46.7-64.4-79.1-99.1-141.6
					C1217,392.5,1181.2,432.6,1181.2,481.2z"/>
				
					<radialGradient id="SVGID_4_" cx="1508.9969" cy="638.6915" r="97.7917" gradientTransform="matrix(1 0 0 -1 0 960)" gradientUnits="userSpaceOnUse">
					<stop  offset="0" style="stop-color:#FFFFFF"/>
					<stop  offset="1" style="stop-color:#FF1D4C"/>
				</radialGradient>
				<path class="st5" d="M1469,410.8c37.4-13.3,64.2-49,64.2-91c0-39.4-23.6-73.4-57.5-88.4c-37.4,13.3-90.6,49-90.6,91
					C1385,361.9,1435.1,395.8,1469,410.8z"/>
				
					<radialGradient id="SVGID_5_" cx="1368.9769" cy="321.2388" r="97.7917" gradientTransform="matrix(1 0 0 -1 0 960)" gradientUnits="userSpaceOnUse">
					<stop  offset="0" style="stop-color:#FFFFFF"/>
					<stop  offset="1" style="stop-color:#FF1D4C"/>
				</radialGradient>
				<path class="st6" d="M1340,639.9c0,41.7,26.5,77.3,63.5,90.8c37-13.5,90-49,90-90.8s-52.9-77.3-90-90.8
					C1366.4,562.7,1340,598.2,1340,639.9z"/>
			</g>
			<defs>
				<filter id="Adobe_OpacityMaskFilter" filterUnits="userSpaceOnUse" x="1181.2" y="231.4" width="510.7" height="499.3">
					<feColorMatrix  type="matrix" values="1 0 0 0 0  0 1 0 0 0  0 0 1 0 0  0 0 0 1 0"/>
				</filter>
			</defs>
			<mask maskUnits="userSpaceOnUse" x="1181.2" y="231.4" width="510.7" height="499.3" id="mask1_2_">
				
					<linearGradient id="SVGID_6_" gradientUnits="userSpaceOnUse" x1="1663.7285" y1="736.1158" x2="1663.6752" y2="735.9242" gradientTransform="matrix(1496 0 0 -1462 -2487476 1076540)">
					<stop  offset="0" style="stop-color:#FFFFFF"/>
					<stop  offset="1" style="stop-color:#000000"/>
				</linearGradient>
				<rect x="1143" y="214.6" class="st7" width="554.2" height="541.6"/>
			</mask>
			<g class="st8">
				
					<radialGradient id="SVGID_7_" cx="1368.9769" cy="321.2388" r="372.6458" gradientTransform="matrix(1 0 0 -1 0 960)" gradientUnits="userSpaceOnUse">
					<stop  offset="0" style="stop-color:#FFDE22"/>
					<stop  offset="0.6667" style="stop-color:#FFDE22"/>
					<stop  offset="1" style="stop-color:#E8E5DD"/>
				</radialGradient>
				<path class="st9" d="M1612,576.3c45.4-7.9,79.9-47.5,79.9-95.1c0-53.3-43.2-96.6-96.6-96.6c-36.1,0-67.6,19.9-84.2,49.2
					C1550.3,477.9,1583.4,517.6,1612,576.3z"/>
				
					<radialGradient id="SVGID_8_" cx="1508.9969" cy="638.6915" r="372.6458" gradientTransform="matrix(1 0 0 -1 0 960)" gradientUnits="userSpaceOnUse">
					<stop  offset="0" style="stop-color:#FFDE22"/>
					<stop  offset="0.6667" style="stop-color:#FFDE22"/>
					<stop  offset="1" style="stop-color:#E8E5DD"/>
				</radialGradient>
				<path class="st10" d="M1181.2,481.2c0,53.3,43.2,96.6,96.6,96.6c36.7,0,68.6-20.4,84.9-50.6c-42.6-46.7-64.4-79.1-99.1-141.6
					C1217,392.5,1181.2,432.6,1181.2,481.2z"/>
				
					<radialGradient id="SVGID_9_" cx="1508.9969" cy="638.6915" r="97.7917" gradientTransform="matrix(1 0 0 -1 0 960)" gradientUnits="userSpaceOnUse">
					<stop  offset="0" style="stop-color:#FFFFFF"/>
					<stop  offset="1" style="stop-color:#FFDE22"/>
				</radialGradient>
				<path class="st11" d="M1469,410.8c37.4-13.3,64.2-49,64.2-91c0-39.4-23.6-73.4-57.5-88.4c-37.4,13.3-90.6,49-90.6,91
					C1385,361.9,1435.1,395.8,1469,410.8z"/>
				
					<radialGradient id="SVGID_10_" cx="1368.9769" cy="321.2388" r="97.7917" gradientTransform="matrix(1 0 0 -1 0 960)" gradientUnits="userSpaceOnUse">
					<stop  offset="0" style="stop-color:#FFFFFF"/>
					<stop  offset="1" style="stop-color:#FFDE22"/>
				</radialGradient>
				<path class="st12" d="M1340,639.9c0,41.7,26.5,77.3,63.5,90.8c37-13.5,90-49,90-90.8s-52.9-77.3-90-90.8
					C1366.4,562.7,1340,598.2,1340,639.9z"/>
			</g>
		</g>
		
			<linearGradient id="SVGID_11_" gradientUnits="userSpaceOnUse" x1="1662.724" y1="736.3207" x2="1662.724" y2="735.9178" gradientTransform="matrix(636.4644 0 0 -1372.5001 -1056883.125 1010704.4375)">
			<stop  offset="0" style="stop-color:#FFDE22"/>
			<stop  offset="1" style="stop-color:#F01E52"/>
		</linearGradient>
		<path class="st13" d="M1403.5,730.7c10.3,3.8,21.5,5.8,33.1,5.8c23,0,44.1-8,60.7-21.4l2.2-148.5c-16.9-14.5-38.9-23.3-62.9-23.3
			c-11.6,0-22.8,2-33.1,5.8c37,13.5,63.5,49,63.5,90.8C1467,681.6,1440.5,717.2,1403.5,730.7z M1362.7,527.2
			c7.4-13.7,11.6-29.4,11.6-46c0-53.3-43.2-96.6-96.6-96.6c-4.8,0-9.5,0.4-14.1,1C1279.1,443.8,1314.8,493.6,1362.7,527.2z
			 M1340,319.8c0,42.7,27.7,78.9,66.1,91.7V228.1C1367.7,240.8,1340,277.1,1340,319.8z"/>
		
			<linearGradient id="SVGID_12_" gradientUnits="userSpaceOnUse" x1="1662.3878" y1="736.2272" x2="1662.3878" y2="735.8446" gradientTransform="matrix(627.1428 0 0 -1355.5713 -1041058.6875 998231.625)">
			<stop  offset="0" style="stop-color:#FFDE22"/>
			<stop  offset="1" style="stop-color:#F01E52"/>
		</linearGradient>
		<path class="st14" d="M1481.7,725.3c30.6-16.2,51.4-48.4,51.4-85.4c0-37.5-21.4-70-52.6-86c10.1,27.2,15.6,56.6,15.6,87.3
			C1496.1,670.7,1491,699,1481.7,725.3z M1498.7,481.2c0,53.3,43.2,96.6,96.6,96.6c5.7,0,11.3-0.5,16.7-1.4
			c-15.7-58.7-52.1-109-100.9-142.5C1503.2,447.8,1498.7,464,1498.7,481.2z M1394.7,406.8c12.7,6.1,26.9,9.5,41.9,9.5
			c11.4,0,22.3-2,32.4-5.6c-33.9-15-57.5-48.9-57.5-88.4c0-42,26.8-77.7,64.2-91c-11.9-5.3-25.1-8.2-39-8.2c-14.5,0-28.3,3.2-40.7,9
			c-10.5,27.6-16.2,57.6-16.2,88.9C1379.7,351.2,1385,380.1,1394.7,406.8z"/>
		<g class="st15">
			
				<radialGradient id="SVGID_13_" cx="1508.9969" cy="638.6915" r="171.8764" gradientTransform="matrix(1 0 0 -1 0 960)" gradientUnits="userSpaceOnUse">
				<stop  offset="0" style="stop-color:#8F8F8F"/>
				<stop  offset="0.5944" style="stop-color:#8F8F8F"/>
				<stop  offset="0.7" style="stop-color:#C5C5C5"/>
				<stop  offset="0.7556" style="stop-color:#D9D9D9"/>
				<stop  offset="1" style="stop-color:#FFFFFF"/>
			</radialGradient>
			<path class="st16" d="M1340,319.8c0,53.3,43.2,96.6,96.6,96.6c11.4,0,22.3-2,32.4-5.6c-33.9-15-57.5-48.9-57.5-88.4
				c0-42,26.8-77.7,64.2-91c-11.9-5.3-25.1-8.2-39-8.2C1383.2,223.2,1340,266.4,1340,319.8z"/>
			
				<radialGradient id="SVGID_14_" cx="1508.9969" cy="638.6915" r="254.1103" gradientTransform="matrix(1 0 0 -1 0 960)" gradientUnits="userSpaceOnUse">
				<stop  offset="0" style="stop-color:#FFFFFF"/>
				<stop  offset="0.2778" style="stop-color:#FFFFFF"/>
				<stop  offset="0.7722" style="stop-color:#FFFFFF"/>
				<stop  offset="0.8778" style="stop-color:#D8D8D8"/>
				<stop  offset="0.9333" style="stop-color:#C1C1C1"/>
				<stop  offset="1" style="stop-color:#8F8F8F"/>
			</radialGradient>
			<path class="st17" d="M1362.7,527.2c7.4-13.7,11.6-29.4,11.6-46c0-53.3-43.2-96.6-96.6-96.6c-4.8,0-9.5,0.4-14.1,1
				C1279.1,443.8,1314.8,493.6,1362.7,527.2z"/>
			
				<radialGradient id="SVGID_15_" cx="1368.9769" cy="321.2388" r="254.1103" gradientTransform="matrix(1 0 0 -1 0 960)" gradientUnits="userSpaceOnUse">
				<stop  offset="0" style="stop-color:#FFFFFF"/>
				<stop  offset="0.2778" style="stop-color:#FFFFFF"/>
				<stop  offset="0.7722" style="stop-color:#FFFFFF"/>
				<stop  offset="0.8778" style="stop-color:#D8D8D8"/>
				<stop  offset="0.9333" style="stop-color:#C1C1C1"/>
				<stop  offset="1" style="stop-color:#8F8F8F"/>
			</radialGradient>
			<path class="st18" d="M1498.7,481.2c0,53.3,43.2,96.6,96.6,96.6c5.7,0,11.3-0.5,16.7-1.4c-15.7-58.7-52.1-109-100.9-142.5
				C1503.2,447.8,1498.7,464,1498.7,481.2z"/>
			
				<radialGradient id="SVGID_16_" cx="1368.9769" cy="321.2388" r="171.8764" gradientTransform="matrix(1 0 0 -1 0 960)" gradientUnits="userSpaceOnUse">
				<stop  offset="0" style="stop-color:#8F8F8F"/>
				<stop  offset="0.5944" style="stop-color:#8F8F8F"/>
				<stop  offset="0.7" style="stop-color:#C5C5C5"/>
				<stop  offset="0.7556" style="stop-color:#D9D9D9"/>
				<stop  offset="1" style="stop-color:#FFFFFF"/>
			</radialGradient>
			<path class="st19" d="M1403.5,730.7c10.3,3.8,21.5,5.8,33.1,5.8c53.3,0,96.6-43.2,96.6-96.6c0-53.3-43.2-96.6-96.6-96.6
				c-11.6,0-22.8,2-33.1,5.8c37,13.5,63.5,49,63.5,90.8C1467,681.6,1440.5,717.2,1403.5,730.7z"/>
		</g>
	</g>
	<g>
		<g>
			<path class="st20" d="M1890.5,579.6c-17.3,0-31.9-2.7-43.5-8.2c-11.7-5.5-20.5-12.6-26.6-21.4c-6.1-8.8-9.3-18.1-9.7-27.8
				c0-1.8,0.6-3.3,1.7-4.5s2.5-1.8,4.2-1.8h24.9c2.4,0,4.2,0.5,5.5,1.6c1.2,1.1,2.3,2.4,3.2,4c1.1,3.8,3.3,7.5,6.4,11.2
				c3.2,3.7,7.5,6.7,13,9.1c5.5,2.4,12.5,3.6,20.8,3.6c13.4,0,23.5-2.4,30.1-7.1c6.6-4.8,9.9-11.2,9.9-19.4c0-5.8-1.8-10.4-5.3-13.8
				c-3.5-3.5-9-6.7-16.4-9.5c-7.4-2.9-17.1-5.9-29.2-9.1c-14-3.6-25.7-7.9-35.1-13c-9.4-5.1-16.5-11.5-21.3-19.2
				c-4.8-7.7-7.1-17.6-7.1-29.5c0-11.5,2.9-21.7,8.8-30.7c5.9-8.9,14.3-16,25.2-21.1c10.9-5.2,23.9-7.7,39-7.7
				c12.1,0,22.8,1.7,32.2,5.2c9.3,3.5,17.1,8,23.2,13.7c6.2,5.7,10.9,11.7,14.1,18.2c3.3,6.5,5,12.8,5.2,18.9c0,1.6-0.5,3-1.5,4.3
				c-1,1.3-2.5,1.9-4.3,1.9h-26c-1.5,0-3-0.4-4.5-1.2c-1.5-0.8-2.7-2.3-3.6-4.5c-1.1-6.2-4.8-11.4-10.9-15.8
				c-6.2-4.4-14.1-6.6-23.8-6.6c-10.1,0-18.2,2-24.3,6c-6.2,4-9.2,10.1-9.2,18.5c0,5.6,1.5,10.2,4.6,13.9c3.1,3.7,8,6.9,14.8,9.7
				c6.8,2.8,15.8,5.8,27,8.9c15.9,3.8,28.8,8.1,38.9,13.1c10.1,5,17.4,11.3,22.1,18.9c4.7,7.6,7,17.3,7,29c0,13.1-3.3,24.3-9.9,33.5
				c-6.6,9.2-15.9,16.3-27.8,21.3C1920.2,577.1,1906.3,579.6,1890.5,579.6z"/>
			<path class="st20" d="M2064.5,576.6c-11.2,0-20.6-2.1-28.3-6.3c-7.7-4.2-13.3-10.4-17.1-18.6c-3.7-8.2-5.6-18.5-5.6-30.8v-67.6
				h-22.1c-1.9,0-3.5-0.7-4.8-2.1c-1.3-1.4-2-3.1-2-5.1v-17.3c0-2,0.7-3.7,2-5.1c1.3-1.4,2.9-2.1,4.8-2.1h22.1v-49.4
				c0-2,0.6-3.7,1.8-5.1c1.2-1.4,2.8-2.1,4.9-2.1h22.7c1.9,0,3.5,0.7,4.8,2.1c1.3,1.4,2,3.1,2,5.1v49.4h35c1.9,0,3.4,0.7,4.8,2.1
				c1.3,1.4,2,3.1,2,5.1v17.3c0,2-0.7,3.7-2,5.1c-1.3,1.4-2.9,2.1-4.8,2.1h-35V518c0,8.1,1.4,14.5,4.1,19.1
				c2.7,4.6,7.4,6.9,14.1,6.9h19.3c1.9,0,3.4,0.7,4.8,2.1c1.3,1.4,2,3.1,2,5.1v18.5c0,2-0.7,3.7-2,5.1c-1.3,1.4-2.9,2.1-4.8,2.1
				H2064.5z"/>
			<path class="st20" d="M2125.5,576.6c-1.9,0-3.5-0.7-4.8-2.1c-1.3-1.4-2-3.1-2-5.1V429.2c0-2.2,0.7-4,2-5.4
				c1.3-1.4,2.9-2.1,4.8-2.1h22.7c1.9,0,3.5,0.7,4.9,2.1c1.4,1.4,2.1,3.2,2.1,5.4v12.2c4.3-6.4,9.8-11.2,16.6-14.6
				c6.8-3.4,14.7-5.1,23.6-5.1h11.5c2,0,3.7,0.7,4.9,2.1c1.2,1.4,1.8,3.1,1.8,5.1v21.4c0,2-0.6,3.7-1.8,5.1
				c-1.2,1.4-2.8,2.1-4.9,2.1h-21.8c-9,0-15.9,2.7-20.8,8c-4.9,5.4-7.4,12.7-7.4,22v81.9c0,2-0.7,3.7-2,5.1c-1.3,1.4-3,2.1-5,2.1
				H2125.5z"/>
			<path class="st20" d="M2277.7,579.6c-9.7,0-18.5-2-26.3-6.1c-7.8-4.1-14-9.5-18.6-16.4c-4.6-6.9-6.9-14.5-6.9-23.1
				c0-13.9,5.3-25,15.8-33.2c10.5-8.2,24.5-13.7,41.8-16.5l38.3-6v-6.3c0-8.3-2-14.8-5.9-19.4c-3.9-4.6-10.6-6.9-20.1-6.9
				c-6.7,0-12.2,1.4-16.4,4.3c-4.2,2.9-7.3,6.7-9.4,11.5c-1.5,2.6-3.6,3.9-6.4,3.9h-22.1c-2.1,0-3.6-0.6-4.6-1.8
				c-1-1.2-1.5-2.8-1.5-4.8c0.2-3.2,1.4-7,3.6-11.6c2.2-4.6,5.8-9,10.6-13.3c4.8-4.3,11.1-7.9,18.7-10.9c7.6-3,16.9-4.5,27.7-4.5
				c11.8,0,21.7,1.5,29.8,4.6c8.1,3.1,14.6,7.2,19.4,12.4c4.8,5.2,8.4,11.2,10.6,18.2c2.2,7,3.4,14.3,3.4,22v93.5c0,2-0.7,3.7-2,5.1
				c-1.3,1.4-2.9,2.1-4.8,2.1H2330c-2.1,0-3.7-0.7-4.9-2.1c-1.2-1.4-1.8-3.1-1.8-5.1v-11.6c-2.4,3.8-5.7,7.3-9.8,10.6
				c-4.1,3.3-9.1,6-15,8C2292.7,578.6,2285.7,579.6,2277.7,579.6z M2287.2,551.3c6.5,0,12.5-1.5,17.8-4.5c5.3-3,9.5-7.6,12.6-13.9
				c3.1-6.3,4.6-14.1,4.6-23.7v-6.3l-28,4.8c-11,1.8-19.2,4.7-24.6,8.6c-5.4,4-8.1,8.8-8.1,14.6c0,4.4,1.3,8.1,3.8,11.2
				c2.5,3.1,5.7,5.4,9.7,6.9S2282.9,551.3,2287.2,551.3z"/>
			<path class="st20" d="M2461,576.6c-11.2,0-20.6-2.1-28.3-6.3c-7.7-4.2-13.3-10.4-17.1-18.6c-3.7-8.2-5.6-18.5-5.6-30.8v-67.6
				h-22.1c-1.9,0-3.5-0.7-4.8-2.1c-1.3-1.4-2-3.1-2-5.1v-17.3c0-2,0.7-3.7,2-5.1c1.3-1.4,2.9-2.1,4.8-2.1h22.1v-49.4
				c0-2,0.6-3.7,1.8-5.1c1.2-1.4,2.8-2.1,4.9-2.1h22.7c1.9,0,3.5,0.7,4.8,2.1c1.3,1.4,2,3.1,2,5.1v49.4h35c1.9,0,3.4,0.7,4.8,2.1
				c1.3,1.4,2,3.1,2,5.1v17.3c0,2-0.7,3.7-2,5.1c-1.3,1.4-2.9,2.1-4.8,2.1h-35V518c0,8.1,1.4,14.5,4.1,19.1
				c2.7,4.6,7.4,6.9,14.1,6.9h19.3c1.9,0,3.4,0.7,4.8,2.1c1.3,1.4,2,3.1,2,5.1v18.5c0,2-0.7,3.7-2,5.1c-1.3,1.4-2.9,2.1-4.8,2.1
				H2461z"/>
			<path class="st20" d="M2579.6,579.6c-14.9,0-27.5-2.8-37.6-8.3c-10.2-5.6-17.9-13.4-23.2-23.5s-8.3-21.9-9.1-35.4
				c-0.2-3.6-0.3-7.9-0.3-13.1c0-5.2,0.1-9.5,0.3-13.1c0.7-13.7,3.9-25.6,9.4-35.6c5.5-10,13.3-17.8,23.5-23.4
				c10.2-5.6,22.5-8.3,37.1-8.3c14.5,0,26.9,2.8,37.1,8.3c10.2,5.6,18,13.4,23.5,23.4c5.5,10,8.6,21.9,9.4,35.6
				c0.2,3.6,0.3,7.9,0.3,13.1c0,5.2-0.1,9.5-0.3,13.1c-0.7,13.5-3.8,25.3-9.1,35.4c-5.3,10.1-13.1,18-23.2,23.5
				C2607.1,576.8,2594.5,579.6,2579.6,579.6z M2579.6,550.1c9.9,0,17.5-3.3,22.9-10c5.4-6.7,8.4-16.4,9-29.3c0.2-3,0.3-6.9,0.3-11.6
				s-0.1-8.6-0.3-11.6c-0.6-12.7-3.5-22.4-9-29.2c-5.4-6.7-13.1-10.1-22.9-10.1c-9.9,0-17.5,3.4-22.9,10.1c-5.4,6.8-8.4,16.5-9,29.2
				c-0.2,3-0.3,6.9-0.3,11.6s0.1,8.6,0.3,11.6c0.6,12.9,3.5,22.7,9,29.3C2562.1,546.8,2569.7,550.1,2579.6,550.1z"/>
		</g>
	</g>
</g>
</svg>
