<?xml version="1.0" encoding="utf-8"?>
<!-- Generator: Adobe Illustrator 25.3.0, SVG Export Plug-In . SVG Version: 6.00 Build 0)  -->
<svg version="1.1" id="skyline_x25_20logo_x25_20standalone.fw-Page_x25_201"
	 xmlns="http://www.w3.org/2000/svg" xmlns:xlink="http://www.w3.org/1999/xlink" x="0px" y="0px" viewBox="0 0 2048 1024"
	 style="enable-background:new 0 0 2048 1024;" xml:space="preserve">
<style type="text/css">
	.st0{fill:#121212;}
	.st1{fill:url(#SVGID_1_);}
	.st2{opacity:0.6;mix-blend-mode:color-burn;}
	.st3{fill:url(#SVGID_2_);}
	.st4{fill:url(#SVGID_3_);}
	.st5{fill:url(#SVGID_4_);}
	.st6{fill:url(#SVGID_5_);}
	.st7{fill:url(#SVGID_6_);filter:url(#Adobe_OpacityMaskFilter);}
	.st8{mask:url(#mask1_2_);}
	.st9{fill:url(#SVGID_7_);}
	.st10{fill:url(#SVGID_8_);}
	.st11{fill:url(#SVGID_9_);}
	.st12{fill:url(#SVGID_10_);}
	.st13{fill:url(#SVGID_11_);}
	.st14{fill:url(#SVGID_12_);}
	.st15{opacity:0.65;mix-blend-mode:overlay;}
	.st16{fill:url(#SVGID_13_);}
	.st17{fill:url(#SVGID_14_);}
	.st18{fill:url(#SVGID_15_);}
	.st19{fill:url(#SVGID_16_);}
	.st20{fill:#FFFFFF;}
</style>
<rect class="st0" width="2048" height="1024"/>
<g>
	<g>
		
			<linearGradient id="SVGID_1_" gradientUnits="userSpaceOnUse" x1="767.5228" y1="767.8679" x2="767.6557" y2="768.2414" gradientTransform="matrix(1378.5713 0 0 -1347.8571 -1057667.625 1035739.5625)">
			<stop  offset="0" style="stop-color:#E8E5DD"/>
			<stop  offset="1" style="stop-color:#F6F6F6"/>
		</linearGradient>
		<path class="st1" d="M405.3,682.6c0,44.5,28.2,82.4,67.7,96.8c39.5-14.4,96-52.3,96-96.8c0-44.5-56.4-82.4-96-96.8
			C433.5,600.2,405.3,638.1,405.3,682.6z M542.9,438.2c39.9-14.2,68.5-52.3,68.5-97.1c0-42.1-25.2-78.3-61.4-94.2
			c-39.9,14.2-96.7,52.3-96.7,97.1C453.3,386,506.7,422.2,542.9,438.2z M236,513.3c0,56.9,46.1,103,103,103
			c39.1,0,73.2-21.8,90.6-53.9c-45.4-49.8-68.7-84.4-105.7-151C274.2,418.6,236,461.5,236,513.3z M695.4,614.7
			c48.4-8.4,85.2-50.7,85.2-101.5c0-56.9-46.1-103-103-103c-38.5,0-72.1,21.2-89.8,52.5C629.7,509.7,665,552.1,695.4,614.7z"/>
		<g class="st2">
			<g>
				
					<radialGradient id="SVGID_2_" cx="436.2421" cy="342.6548" r="397.4888" gradientTransform="matrix(1 0 0 -1 0 1024)" gradientUnits="userSpaceOnUse">
					<stop  offset="0" style="stop-color:#FF1D4C"/>
					<stop  offset="0.6667" style="stop-color:#FF1D4C"/>
					<stop  offset="1" style="stop-color:#E8E5DD"/>
				</radialGradient>
				<path class="st3" d="M695.4,614.7c48.4-8.4,85.2-50.7,85.2-101.5c0-56.9-46.1-103-103-103c-38.5,0-72.1,21.2-89.8,52.5
					C629.7,509.7,665,552.1,695.4,614.7z"/>
				
					<radialGradient id="SVGID_3_" cx="585.5967" cy="681.2709" r="397.4888" gradientTransform="matrix(1 0 0 -1 0 1024)" gradientUnits="userSpaceOnUse">
					<stop  offset="0" style="stop-color:#FF1D4C"/>
					<stop  offset="0.6667" style="stop-color:#FF1D4C"/>
					<stop  offset="1" style="stop-color:#E8E5DD"/>
				</radialGradient>
				<path class="st4" d="M236,513.3c0,56.9,46.1,103,103,103c39.1,0,73.2-21.8,90.6-53.9c-45.4-49.8-68.7-84.4-105.7-151
					C274.2,418.6,236,461.5,236,513.3z"/>
				
					<radialGradient id="SVGID_4_" cx="585.5967" cy="681.2709" r="104.3112" gradientTransform="matrix(1 0 0 -1 0 1024)" gradientUnits="userSpaceOnUse">
					<stop  offset="0" style="stop-color:#FFFFFF"/>
					<stop  offset="1" style="stop-color:#FF1D4C"/>
				</radialGradient>
				<path class="st5" d="M542.9,438.2c39.9-14.2,68.5-52.3,68.5-97.1c0-42.1-25.2-78.3-61.4-94.2c-39.9,14.2-96.7,52.3-96.7,97.1
					C453.3,386,506.7,422.2,542.9,438.2z"/>
				
					<radialGradient id="SVGID_5_" cx="436.2421" cy="342.6548" r="104.3112" gradientTransform="matrix(1 0 0 -1 0 1024)" gradientUnits="userSpaceOnUse">
					<stop  offset="0" style="stop-color:#FFFFFF"/>
					<stop  offset="1" style="stop-color:#FF1D4C"/>
				</radialGradient>
				<path class="st6" d="M405.3,682.6c0,44.5,28.2,82.4,67.7,96.8c39.5-14.4,96-52.3,96-96.8s-56.4-82.4-96-96.8
					C433.5,600.2,405.3,638.1,405.3,682.6z"/>
			</g>
			<defs>
				<filter id="Adobe_OpacityMaskFilter" filterUnits="userSpaceOnUse" x="236" y="246.8" width="544.7" height="532.6">
					<feColorMatrix  type="matrix" values="1 0 0 0 0  0 1 0 0 0  0 0 1 0 0  0 0 0 1 0"/>
				</filter>
			</defs>
			<mask maskUnits="userSpaceOnUse" x="236" y="246.8" width="544.7" height="532.6" id="mask1_2_">
				
					<linearGradient id="SVGID_6_" gradientUnits="userSpaceOnUse" x1="767.7081" y1="768.1223" x2="767.6512" y2="767.9179" gradientTransform="matrix(1496 0 0 -1462 -1147956 1123356)">
					<stop  offset="0" style="stop-color:#FFFFFF"/>
					<stop  offset="1" style="stop-color:#000000"/>
				</linearGradient>
				<rect x="195.2" y="228.9" class="st7" width="591.1" height="577.7"/>
			</mask>
			<g class="st8">
				
					<radialGradient id="SVGID_7_" cx="436.2421" cy="342.6548" r="397.4888" gradientTransform="matrix(1 0 0 -1 0 1024)" gradientUnits="userSpaceOnUse">
					<stop  offset="0" style="stop-color:#FFDE22"/>
					<stop  offset="0.6667" style="stop-color:#FFDE22"/>
					<stop  offset="1" style="stop-color:#E8E5DD"/>
				</radialGradient>
				<path class="st9" d="M695.4,614.7c48.4-8.4,85.2-50.7,85.2-101.5c0-56.9-46.1-103-103-103c-38.5,0-72.1,21.2-89.8,52.5
					C629.7,509.7,665,552.1,695.4,614.7z"/>
				
					<radialGradient id="SVGID_8_" cx="585.5967" cy="681.2709" r="397.4888" gradientTransform="matrix(1 0 0 -1 0 1024)" gradientUnits="userSpaceOnUse">
					<stop  offset="0" style="stop-color:#FFDE22"/>
					<stop  offset="0.6667" style="stop-color:#FFDE22"/>
					<stop  offset="1" style="stop-color:#E8E5DD"/>
				</radialGradient>
				<path class="st10" d="M236,513.3c0,56.9,46.1,103,103,103c39.1,0,73.2-21.8,90.6-53.9c-45.4-49.8-68.7-84.4-105.7-151
					C274.2,418.6,236,461.5,236,513.3z"/>
				
					<radialGradient id="SVGID_9_" cx="585.5967" cy="681.2709" r="104.3112" gradientTransform="matrix(1 0 0 -1 0 1024)" gradientUnits="userSpaceOnUse">
					<stop  offset="0" style="stop-color:#FFFFFF"/>
					<stop  offset="1" style="stop-color:#FFDE22"/>
				</radialGradient>
				<path class="st11" d="M542.9,438.2c39.9-14.2,68.5-52.3,68.5-97.1c0-42.1-25.2-78.3-61.4-94.2c-39.9,14.2-96.7,52.3-96.7,97.1
					C453.3,386,506.7,422.2,542.9,438.2z"/>
				
					<radialGradient id="SVGID_10_" cx="436.2421" cy="342.6548" r="104.3112" gradientTransform="matrix(1 0 0 -1 0 1024)" gradientUnits="userSpaceOnUse">
					<stop  offset="0" style="stop-color:#FFFFFF"/>
					<stop  offset="1" style="stop-color:#FFDE22"/>
				</radialGradient>
				<path class="st12" d="M405.3,682.6c0,44.5,28.2,82.4,67.7,96.8c39.5-14.4,96-52.3,96-96.8s-56.4-82.4-96-96.8
					C433.5,600.2,405.3,638.1,405.3,682.6z"/>
			</g>
		</g>
		
			<linearGradient id="SVGID_11_" gradientUnits="userSpaceOnUse" x1="766.6675" y1="768.339" x2="766.6675" y2="767.9092" gradientTransform="matrix(636.4644 0 0 -1372.5001 -487506.9688 1054656.5)">
			<stop  offset="0" style="stop-color:#FFDE22"/>
			<stop  offset="1" style="stop-color:#F01E52"/>
		</linearGradient>
		<path class="st13" d="M473,779.4c11,4,22.9,6.2,35.3,6.2c24.5,0,47-8.6,64.7-22.8l2.4-158.4c-18-15.5-41.5-24.8-67.1-24.8
			c-12.4,0-24.3,2.2-35.3,6.2c39.5,14.4,67.7,52.3,67.7,96.8C540.8,727.1,512.6,765,473,779.4z M429.6,562.3
			c7.9-14.6,12.4-31.3,12.4-49.1c0-56.9-46.1-103-103-103c-5.1,0-10.2,0.4-15.1,1.1C340.3,473.3,378.4,526.5,429.6,562.3z
			 M405.3,341.1c0,45.6,29.6,84.2,70.6,97.8V243.3C434.9,256.9,405.3,295.5,405.3,341.1z"/>
		
			<linearGradient id="SVGID_12_" gradientUnits="userSpaceOnUse" x1="766.3428" y1="768.2398" x2="766.3428" y2="767.8317" gradientTransform="matrix(627.1428 0 0 -1355.5713 -480034.7812 1041641.875)">
			<stop  offset="0" style="stop-color:#FFDE22"/>
			<stop  offset="1" style="stop-color:#F01E52"/>
		</linearGradient>
		<path class="st14" d="M556.5,773.7c32.6-17.3,54.9-51.6,54.9-91.1c0-40-22.8-74.7-56.1-91.8c10.8,29,16.6,60.4,16.6,93.2
			C571.8,715.5,566.4,745.6,556.5,773.7z M574.6,513.3c0,56.9,46.1,103,103,103c6.1,0,12-0.5,17.8-1.5
			c-16.7-62.6-55.5-116.3-107.6-152C579.4,477.7,574.6,494.9,574.6,513.3z M463.6,433.9c13.5,6.5,28.7,10.2,44.7,10.2
			c12.1,0,23.8-2.1,34.6-5.9c-36.1-16-61.4-52.2-61.4-94.2c0-44.8,28.6-82.9,68.5-97.1c-12.7-5.6-26.8-8.8-41.6-8.8
			c-15.5,0-30.2,3.4-43.4,9.6c-11.2,29.5-17.3,61.5-17.3,94.9C447.6,374.6,453.3,405.4,463.6,433.9z"/>
		<g class="st15">
			
				<radialGradient id="SVGID_13_" cx="585.5967" cy="681.2709" r="183.3348" gradientTransform="matrix(1 0 0 -1 0 1024)" gradientUnits="userSpaceOnUse">
				<stop  offset="0" style="stop-color:#8F8F8F"/>
				<stop  offset="0.5944" style="stop-color:#8F8F8F"/>
				<stop  offset="0.7" style="stop-color:#C5C5C5"/>
				<stop  offset="0.7556" style="stop-color:#D9D9D9"/>
				<stop  offset="1" style="stop-color:#FFFFFF"/>
			</radialGradient>
			<path class="st16" d="M405.3,341.1c0,56.9,46.1,103,103,103c12.1,0,23.8-2.1,34.6-5.9c-36.1-16-61.4-52.2-61.4-94.2
				c0-44.8,28.6-82.9,68.5-97.1c-12.7-5.6-26.8-8.8-41.6-8.8C451.4,238.1,405.3,284.2,405.3,341.1z"/>
			
				<radialGradient id="SVGID_14_" cx="585.5967" cy="681.2709" r="271.051" gradientTransform="matrix(1 0 0 -1 0 1024)" gradientUnits="userSpaceOnUse">
				<stop  offset="0" style="stop-color:#FFFFFF"/>
				<stop  offset="0.2778" style="stop-color:#FFFFFF"/>
				<stop  offset="0.7722" style="stop-color:#FFFFFF"/>
				<stop  offset="0.8778" style="stop-color:#D8D8D8"/>
				<stop  offset="0.9333" style="stop-color:#C1C1C1"/>
				<stop  offset="1" style="stop-color:#8F8F8F"/>
			</radialGradient>
			<path class="st17" d="M429.6,562.3c7.9-14.6,12.4-31.3,12.4-49.1c0-56.9-46.1-103-103-103c-5.1,0-10.2,0.4-15.1,1.1
				C340.3,473.3,378.4,526.5,429.6,562.3z"/>
			
				<radialGradient id="SVGID_15_" cx="436.2421" cy="342.6548" r="271.051" gradientTransform="matrix(1 0 0 -1 0 1024)" gradientUnits="userSpaceOnUse">
				<stop  offset="0" style="stop-color:#FFFFFF"/>
				<stop  offset="0.2778" style="stop-color:#FFFFFF"/>
				<stop  offset="0.7722" style="stop-color:#FFFFFF"/>
				<stop  offset="0.8778" style="stop-color:#D8D8D8"/>
				<stop  offset="0.9333" style="stop-color:#C1C1C1"/>
				<stop  offset="1" style="stop-color:#8F8F8F"/>
			</radialGradient>
			<path class="st18" d="M574.6,513.3c0,56.9,46.1,103,103,103c6.1,0,12-0.5,17.8-1.5c-16.7-62.6-55.5-116.3-107.6-152
				C579.4,477.7,574.6,494.9,574.6,513.3z"/>
			
				<radialGradient id="SVGID_16_" cx="436.2421" cy="342.6548" r="183.3348" gradientTransform="matrix(1 0 0 -1 0 1024)" gradientUnits="userSpaceOnUse">
				<stop  offset="0" style="stop-color:#8F8F8F"/>
				<stop  offset="0.5944" style="stop-color:#8F8F8F"/>
				<stop  offset="0.7" style="stop-color:#C5C5C5"/>
				<stop  offset="0.7556" style="stop-color:#D9D9D9"/>
				<stop  offset="1" style="stop-color:#FFFFFF"/>
			</radialGradient>
			<path class="st19" d="M473,779.4c11,4,22.9,6.2,35.3,6.2c56.9,0,103-46.1,103-103c0-56.9-46.1-103-103-103
				c-12.4,0-24.3,2.2-35.3,6.2c39.5,14.4,67.7,52.3,67.7,96.8C540.8,727.1,512.6,765,473,779.4z"/>
		</g>
	</g>
	<g>
		<g>
			<path class="st20" d="M992.5,618.3c-18.5,0-34-2.9-46.4-8.7c-12.4-5.8-21.9-13.4-28.4-22.9c-6.5-9.4-9.9-19.3-10.3-29.7
				c0-1.9,0.6-3.5,1.8-4.8c1.2-1.3,2.7-1.9,4.5-1.9h26.6c2.6,0,4.5,0.6,5.8,1.7c1.3,1.2,2.4,2.6,3.4,4.3c1.2,4,3.5,8,6.9,11.9
				c3.4,3.9,8,7.1,13.9,9.7c5.9,2.5,13.3,3.8,22.2,3.8c14.3,0,25-2.5,32.1-7.6c7.1-5.1,10.6-12,10.6-20.7c0-6.1-1.9-11.1-5.7-14.8
				c-3.8-3.7-9.6-7.1-17.5-10.2c-7.9-3.1-18.3-6.3-31.2-9.7c-14.9-3.8-27.4-8.4-37.5-13.8c-10-5.4-17.6-12.2-22.7-20.5
				c-5.1-8.3-7.6-18.7-7.6-31.5c0-12.3,3.1-23.2,9.4-32.7c6.3-9.5,15.2-17,26.9-22.6c11.6-5.5,25.5-8.3,41.6-8.3
				c12.9,0,24.4,1.9,34.3,5.6c9.9,3.7,18.2,8.6,24.8,14.6c6.6,6,11.6,12.5,15.1,19.4c3.5,6.9,5.3,13.6,5.5,20.2
				c0,1.7-0.5,3.2-1.6,4.6c-1.1,1.4-2.6,2.1-4.6,2.1h-27.8c-1.6,0-3.2-0.4-4.8-1.3c-1.6-0.8-2.9-2.4-3.9-4.8
				c-1.2-6.6-5.1-12.2-11.6-16.8c-6.6-4.7-15-7-25.4-7c-10.7,0-19.4,2.1-26,6.4c-6.6,4.2-9.8,10.8-9.8,19.7c0,5.9,1.6,10.9,4.9,14.8
				c3.3,3.9,8.6,7.4,15.8,10.3c7.3,3,16.9,6.1,28.8,9.5c16.9,4,30.7,8.7,41.5,14c10.7,5.3,18.6,12,23.6,20.2c5,8.2,7.5,18.5,7.5,31
				c0,14-3.5,25.9-10.6,35.7c-7.1,9.8-17,17.4-29.7,22.7C1024.2,615.6,1009.4,618.3,992.5,618.3z"/>
			<path class="st20" d="M1178.1,615.1c-11.9,0-22-2.2-30.1-6.7c-8.2-4.4-14.2-11.1-18.2-19.9c-4-8.8-6-19.7-6-32.9v-72.1h-23.6
				c-2,0-3.7-0.7-5.1-2.2c-1.4-1.5-2.1-3.3-2.1-5.4v-18.4c0-2.1,0.7-3.9,2.1-5.4c1.4-1.5,3.1-2.2,5.1-2.2h23.6v-52.7
				c0-2.1,0.6-3.9,1.9-5.4c1.3-1.5,3-2.2,5.2-2.2h24.2c2,0,3.7,0.7,5.1,2.2c1.4,1.5,2.1,3.3,2.1,5.4v52.7h37.3c2,0,3.7,0.7,5.1,2.2
				c1.4,1.5,2.1,3.3,2.1,5.4v18.4c0,2.1-0.7,3.9-2.1,5.4c-1.4,1.5-3.1,2.2-5.1,2.2h-37.3v68.9c0,8.7,1.4,15.5,4.3,20.3
				c2.9,4.9,7.9,7.3,15.1,7.3h20.6c2,0,3.7,0.7,5.1,2.2c1.4,1.5,2.1,3.3,2.1,5.4v19.7c0,2.1-0.7,3.9-2.1,5.4
				c-1.4,1.5-3.1,2.2-5.1,2.2H1178.1z"/>
			<path class="st20" d="M1243.2,615.1c-2,0-3.7-0.7-5.1-2.2c-1.4-1.5-2.1-3.3-2.1-5.4V457.8c0-2.3,0.7-4.2,2.1-5.7
				c1.4-1.5,3.1-2.2,5.1-2.2h24.2c2,0,3.7,0.7,5.2,2.2c1.5,1.5,2.2,3.4,2.2,5.7v13c4.6-6.8,10.5-12,17.8-15.6
				c7.3-3.6,15.7-5.4,25.2-5.4h12.2c2.2,0,3.9,0.7,5.2,2.2c1.3,1.5,1.9,3.3,1.9,5.4v22.9c0,2.1-0.6,3.9-1.9,5.4
				c-1.3,1.5-3,2.2-5.2,2.2h-23.3c-9.5,0-17,2.9-22.2,8.6c-5.3,5.7-7.9,13.6-7.9,23.5v87.4c0,2.1-0.7,3.9-2.1,5.4
				c-1.4,1.5-3.2,2.2-5.4,2.2H1243.2z"/>
			<path class="st20" d="M1405.5,618.3c-10.3,0-19.7-2.2-28.1-6.5s-15-10.2-19.8-17.5c-4.9-7.3-7.3-15.5-7.3-24.6
				c0-14.8,5.6-26.6,16.9-35.4c11.2-8.8,26.1-14.7,44.6-17.6l40.9-6.4v-6.7c0-8.9-2.1-15.8-6.3-20.7c-4.2-4.9-11.3-7.3-21.5-7.3
				c-7.2,0-13,1.5-17.5,4.6c-4.5,3.1-7.8,7.1-10,12.2c-1.6,2.8-3.9,4.1-6.9,4.1H1367c-2.2,0-3.8-0.6-4.9-1.9c-1.1-1.3-1.6-3-1.6-5.1
				c0.2-3.4,1.5-7.5,3.9-12.4c2.4-4.9,6.2-9.6,11.3-14.1c5.2-4.6,11.8-8.4,20-11.6c8.2-3.2,18-4.8,29.5-4.8
				c12.5,0,23.1,1.6,31.8,4.9c8.7,3.3,15.6,7.7,20.7,13.2c5.2,5.5,9,12,11.3,19.4c2.4,7.4,3.6,15.3,3.6,23.5v99.8
				c0,2.1-0.7,3.9-2.1,5.4c-1.4,1.5-3.1,2.2-5.1,2.2h-24.2c-2.2,0-3.9-0.7-5.2-2.2c-1.3-1.5-1.9-3.3-1.9-5.4v-12.4
				c-2.6,4-6.1,7.8-10.4,11.3c-4.4,3.5-9.7,6.4-16,8.6C1421.5,617.2,1414.1,618.3,1405.5,618.3z M1415.7,588.1c7,0,13.3-1.6,19-4.8
				c5.7-3.2,10.1-8.1,13.4-14.8c3.3-6.7,4.9-15.1,4.9-25.3v-6.7l-29.8,5.1c-11.7,1.9-20.5,5-26.3,9.2c-5.8,4.2-8.7,9.4-8.7,15.6
				c0,4.7,1.3,8.6,4,11.9c2.7,3.3,6.1,5.7,10.3,7.3C1406.7,587.3,1411.1,588.1,1415.7,588.1z"/>
			<path class="st20" d="M1601,615.1c-11.9,0-22-2.2-30.1-6.7c-8.2-4.4-14.2-11.1-18.2-19.9c-4-8.8-6-19.7-6-32.9v-72.1h-23.6
				c-2,0-3.7-0.7-5.1-2.2c-1.4-1.5-2.1-3.3-2.1-5.4v-18.4c0-2.1,0.7-3.9,2.1-5.4c1.4-1.5,3.1-2.2,5.1-2.2h23.6v-52.7
				c0-2.1,0.6-3.9,1.9-5.4c1.3-1.5,3-2.2,5.2-2.2h24.2c2,0,3.7,0.7,5.1,2.2c1.4,1.5,2.1,3.3,2.1,5.4v52.7h37.3c2,0,3.7,0.7,5.1,2.2
				c1.4,1.5,2.1,3.3,2.1,5.4v18.4c0,2.1-0.7,3.9-2.1,5.4c-1.4,1.5-3.1,2.2-5.1,2.2h-37.3v68.9c0,8.7,1.4,15.5,4.3,20.3
				c2.9,4.9,7.9,7.3,15.1,7.3h20.6c2,0,3.7,0.7,5.1,2.2c1.4,1.5,2.1,3.3,2.1,5.4v19.7c0,2.1-0.7,3.9-2.1,5.4
				c-1.4,1.5-3.1,2.2-5.1,2.2H1601z"/>
			<path class="st20" d="M1727.6,618.3c-15.9,0-29.3-3-40.1-8.9c-10.8-5.9-19.1-14.3-24.8-25.1c-5.7-10.8-8.9-23.4-9.7-37.8
				c-0.2-3.8-0.3-8.5-0.3-14c0-5.5,0.1-10.2,0.3-14c0.8-14.6,4.1-27.3,10-38c5.9-10.7,14.2-19,25.1-24.9c10.8-5.9,24-8.9,39.5-8.9
				s28.7,3,39.5,8.9c10.8,5.9,19.2,14.2,25.1,24.9c5.9,10.7,9.2,23.4,10,38c0.2,3.8,0.3,8.5,0.3,14c0,5.5-0.1,10.2-0.3,14
				c-0.8,14.4-4,27-9.7,37.8c-5.7,10.8-13.9,19.2-24.8,25.1C1756.9,615.3,1743.5,618.3,1727.6,618.3z M1727.6,586.8
				c10.5,0,18.7-3.5,24.5-10.6c5.8-7.1,9-17.5,9.6-31.3c0.2-3.2,0.3-7.3,0.3-12.4c0-5.1-0.1-9.2-0.3-12.4
				c-0.6-13.6-3.8-23.9-9.6-31.1c-5.8-7.2-13.9-10.8-24.5-10.8c-10.5,0-18.7,3.6-24.5,10.8c-5.8,7.2-9,17.6-9.6,31.1
				c-0.2,3.2-0.3,7.3-0.3,12.4c0,5.1,0.1,9.2,0.3,12.4c0.6,13.8,3.8,24.2,9.6,31.3C1708.9,583.3,1717,586.8,1727.6,586.8z"/>
		</g>
	</g>
</g>
</svg>
